<svg xmlns="http://www.w3.org/2000/svg" width="820" height="1260" viewBox="0 0 820 1260">
  <rect width="820" height="1260" fill="#f7f7f7"/>
  <rect x="34" y="0" width="752" height="620" fill="#fff"/>
  <rect x="34" y="646" width="752" height="580" fill="#fff"/>
  <style>
    text { font-family: "Microsoft YaHei", "PingFang SC", Arial, sans-serif; fill:#242833; }
    .muted { fill:#999da6; }
    .light { fill:#b5b8bf; }
    .red { fill:#c94155; }
    .title { font-size:25px; font-weight:500; }
    .main { font-size:30px; font-weight:700; }
    .body { font-size:28px; }
    .small { font-size:22px; }
    .label { font-size:28px; fill:#9da0a8; }
    .amount { font-size:28px; font-weight:500; }
    .total { font-size:31px; font-weight:700; }
  </style>
  <text class="title" x="60" y="48">商品</text>
  <text class="title" x="556" y="48">数量</text>
  <text class="title" x="724" y="48">单价</text>
  <line x1="58" y1="82" x2="770" y2="82" stroke="#7d7f86" stroke-width="1.5" stroke-dasharray="8 9"/>

  <text class="main" x="60" y="132">毛戈平大众化妆品促销</text>
  <text class="small muted" x="60" y="169">001281069888</text>
  <text class="body" x="572" y="132">1</text>
  <text class="body" x="692" y="132">¥2700</text>
  <text class="small muted" x="60" y="204">金额： 2700</text>
  <text class="small muted" x="356" y="204">折扣： -100</text>
  <text class="small muted" x="648" y="204">现价： 2600</text>
  <text class="total" x="566" y="280">应付总额</text>
  <text class="total" x="692" y="280">¥2700</text>

  <line x1="58" y1="318" x2="770" y2="318" stroke="#7d7f86" stroke-width="1.5" stroke-dasharray="8 9"/>
  <text class="label" x="60" y="365">券/优惠</text>
  <text class="body red" x="666" y="365">−¥100</text>
  <text class="body light" x="752" y="365">›</text>
  <text class="label" x="60" y="431">实付款</text>
  <text class="body" x="690" y="431">¥2600</text>
  <text class="label" x="60" y="500">支付明细</text>
  <rect x="60" y="526" width="710" height="70" fill="#fbfbfb"/>
  <text class="body" x="82" y="571">虹支付</text>
  <text class="body" x="690" y="571">¥2600</text>

  <text class="label" x="60" y="700">下单时间</text>
  <text class="body" x="508" y="700">2026-05-24 16:59:17</text>
  <text class="label" x="60" y="766">销售单号</text>
  <text class="body" x="376" y="766">26052452462000051934</text>
  <rect x="696" y="738" width="72" height="40" rx="6" fill="#fff" stroke="#d6d8de"/>
  <text class="small" x="714" y="766">复制</text>
  <text class="label" x="60" y="832">机号</text>
  <text class="body" x="692" y="832">52462</text>
  <text class="label" x="60" y="898">收银员</text>
  <text class="body" x="608" y="898">10012810698</text>
  <text class="label" x="60" y="964">会员卡（银卡）</text>
  <text class="body" x="486" y="964">7000290210031739243</text>
  <text class="label" x="60" y="1030">本次积分</text>
  <text class="body" x="724" y="1030">520</text>
  <text class="label" x="60" y="1098">发票</text>
  <text class="body" x="606" y="1098">不可开发票</text>
  <circle cx="760" cy="1090" r="13" fill="#fff" stroke="#b7bbc2" stroke-width="2"/>
  <text class="small muted" x="753" y="1099">?</text>
</svg>
